HIERARCHY
ROOT Hips
{
	OFFSET -0.001795 -0.223333 0.028219
	CHANNELS 6 Xposition Yposition Zposition Zrotation Yrotation Xrotation 
	JOINT LeftUpLeg
	{
		OFFSET 0.069520 -0.091406 -0.006815
		CHANNELS 3 Zrotation Yrotation Xrotation
		JOINT LeftLeg
		{
			OFFSET 0.034277 -0.375199 -0.004496
			CHANNELS 3 Zrotation Yrotation Xrotation
			JOINT LeftFoot
			{
				OFFSET -0.013596 -0.397961 -0.043693
				CHANNELS 3 Zrotation Yrotation Xrotation
				JOINT LeftToe
				{
					OFFSET 0.026358 -0.055791 0.119288
					CHANNELS 3 Zrotation Yrotation Xrotation
					End Site
					{
						OFFSET 0.000000 0.000000 0.000000
					}
				}
			}
		}
	}
	JOINT RightUpLeg
	{
		OFFSET -0.067670 -0.090522 -0.004320
		CHANNELS 3 Zrotation Yrotation Xrotation
		JOINT RightLeg
		{
			OFFSET -0.038290 -0.382569 -0.008850
			CHANNELS 3 Zrotation Yrotation Xrotation
			JOINT RightFoot
			{
				OFFSET 0.015774 -0.398415 -0.042312
				CHANNELS 3 Zrotation Yrotation Xrotation
				JOINT RightToe
				{
					OFFSET -0.025372 -0.048144 0.123348
					CHANNELS 3 Zrotation Yrotation Xrotation
					End Site
					{
						OFFSET 0.000000 0.000000 0.000000
					}
				}
			}
		}
	}
	JOINT Spine
	{
		OFFSET -0.002533 0.108963 -0.026696
		CHANNELS 3 Zrotation Yrotation Xrotation
		JOINT Spine1
		{
			OFFSET 0.005487 0.135180 0.001092
			CHANNELS 3 Zrotation Yrotation Xrotation
			JOINT Spine2
			{
				OFFSET 0.001457 0.052922 0.025425
				CHANNELS 3 Zrotation Yrotation Xrotation
				JOINT Neck
				{
					OFFSET -0.002778 0.213870 -0.042857
					CHANNELS 3 Zrotation Yrotation Xrotation
					JOINT Head
					{
						OFFSET 0.005152 0.064970 0.051349
						CHANNELS 3 Zrotation Yrotation Xrotation
						End Site
						{
							OFFSET 0.000000 0.000000 0.000000
						}
					}
				}
				JOINT LeftShoulder
				{
					OFFSET 0.078845 0.121749 -0.034090
					CHANNELS 3 Zrotation Yrotation Xrotation
					JOINT LeftArm
					{
						OFFSET 0.090977 0.030469 -0.008868
						CHANNELS 3 Zrotation Yrotation Xrotation
						JOINT LeftForeArm
						{
							OFFSET 0.259612 -0.012772 -0.027456
							CHANNELS 3 Zrotation Yrotation Xrotation
							JOINT LeftHand
							{
								OFFSET 0.249234 0.008986 -0.001171
								CHANNELS 3 Zrotation Yrotation Xrotation
								End Site
								{
									OFFSET 0.000000 0.000000 0.000000
								}
							}
						}
					}
				}
				JOINT RightShoulder
				{
					OFFSET -0.081759 0.118833 -0.038615
					CHANNELS 3 Zrotation Yrotation Xrotation
					JOINT RightArm
					{
						OFFSET -0.096012 0.032551 -0.009143
						CHANNELS 3 Zrotation Yrotation Xrotation
						JOINT RightForeArm
						{
							OFFSET -0.253742 -0.013329 -0.021401
							CHANNELS 3 Zrotation Yrotation Xrotation
							JOINT RightHand
							{
								OFFSET -0.255298 0.007772 -0.005559
								CHANNELS 3 Zrotation Yrotation Xrotation
								End Site
								{
									OFFSET 0.000000 0.000000 0.000000
								}
							}
						}
					}
				}
			}
		}
	}
}
MOTION
Frames: 15
Frame Time: 0.050000
0.000000 0.960319 0.000000 -0.030323 -4.787151 3.359125 0.566358 0.202846 2.319006 0.039731 0.080939 -2.553618 3.888179 10.916434 15.399509 0.000000 0.000000 0.000000 1.448466 0.597228 -5.824625 1.573235 -0.051644 3.303637 -2.119862 -9.579611 11.709615 0.000000 0.000000 0.000000 7.000358 -0.992907 8.827888 -5.984600 1.882266 -25.121552 -2.412058 4.842997 23.162936 8.836851 -5.359810 -13.719691 0.000000 0.000000 0.000000 -9.935079 -11.224753 4.287362 -55.813652 -7.816881 -5.258894 -1.811901 -22.178449 1.331936 0.000000 0.000000 0.000000 20.378376 -2.665338 -2.258411 59.862523 -0.258289 -8.314042 0.499040 24.657840 1.370403 0.000000 0.000000 0.000000 
-0.004440 0.958870 0.009843 -0.367018 -5.366133 3.889441 1.161706 0.168132 2.121641 -0.531697 0.106081 -1.535765 4.823090 12.133034 14.224349 0.000000 0.000000 0.000000 1.911431 0.619094 -5.987636 1.128562 0.017442 3.621435 -1.131720 -7.713682 11.387648 0.000000 0.000000 0.000000 7.776333 -1.048194 8.611302 -6.658560 1.999483 -25.876912 -1.986226 4.668173 23.072632 7.356676 -4.305597 -13.729707 0.000000 0.000000 0.000000 -8.570918 -10.494960 4.007945 -57.690033 -6.959371 -5.786037 -2.875411 -22.793785 1.621777 0.000000 0.000000 0.000000 20.202127 -3.174772 -2.696840 60.968521 -3.089475 -9.833049 0.812231 26.599824 1.555571 0.000000 0.000000 0.000000 
-0.009341 0.957561 0.019857 0.139758 -5.484074 3.194326 1.810732 0.095782 1.405773 -2.105988 0.228918 2.287578 4.767219 11.962915 13.528021 0.000000 0.000000 0.000000 1.981351 0.410211 -4.222003 0.862950 0.021247 2.847542 -1.713732 -8.585623 10.677331 0.000000 0.000000 0.000000 7.413264 -1.117131 9.824510 -6.172129 1.864585 -27.436563 -2.636334 5.015968 24.751700 8.076715 -4.678220 -14.976172 0.000000 0.000000 0.000000 -8.273185 -9.806990 3.707394 -57.877838 -6.683128 -6.167153 -4.083692 -22.787142 1.874973 0.000000 0.000000 0.000000 20.449830 -3.305354 -2.648953 60.623549 -2.680516 -9.812135 1.424580 26.413083 1.724107 0.000000 0.000000 0.000000 
-0.014271 0.957392 0.029489 0.164187 -6.045834 3.604205 2.662313 -0.125902 -1.479437 -3.289398 0.439291 8.340271 4.779157 11.798113 12.497875 0.000000 0.000000 0.000000 1.951531 0.401535 -4.189971 1.444983 -0.055618 2.491135 -1.875783 -9.219265 11.517904 0.000000 0.000000 0.000000 7.744986 -1.147575 9.773484 -6.879274 1.997461 -27.565503 -2.206886 5.545058 24.770892 6.807766 -3.986541 -13.195540 0.000000 0.000000 0.000000 -6.742889 -9.227880 3.407463 -59.689693 -6.155519 -6.591669 -4.205490 -23.222265 1.954747 0.000000 0.000000 0.000000 19.856271 -3.209131 -2.506222 61.154721 -3.409886 -10.247913 1.452963 27.052166 1.792206 0.000000 0.000000 0.000000 
-0.018278 0.957430 0.038424 -0.104037 -6.205708 3.478331 4.498417 -0.314814 -5.632979 -5.485321 1.191729 16.623182 4.707028 11.871867 14.191253 0.000000 0.000000 0.000000 2.433666 0.383738 -4.053010 1.107188 0.036228 3.947887 -1.343536 -7.959792 10.661043 0.000000 0.000000 0.000000 8.493229 -1.297133 10.553809 -7.085933 2.039613 -27.507892 -1.874397 6.469031 24.598621 5.988570 -3.297548 -12.781010 0.000000 0.000000 0.000000 -7.155018 -9.095297 3.270109 -59.317120 -4.538126 -7.406611 -4.815347 -24.435137 2.166852 0.000000 0.000000 0.000000 18.748532 -3.595520 -2.429470 60.929985 -3.466129 -10.208407 3.498812 26.529087 2.219228 0.000000 0.000000 0.000000 
-0.020962 0.956993 0.047410 0.389840 -5.902732 3.586548 5.012123 -0.517534 -11.256481 -7.547471 2.309965 24.934193 6.455650 14.950486 19.212267 0.000000 0.000000 0.000000 1.614096 0.433736 -4.460746 1.798849 -0.001420 5.530763 -1.508593 -8.028272 10.062611 0.000000 0.000000 0.000000 8.450145 -1.393715 11.477986 -6.656084 1.953279 -27.669422 -1.791322 6.988776 24.452314 4.894302 -2.198235 -13.781104 0.000000 0.000000 0.000000 -8.054902 -8.364287 2.881090 -59.262722 -3.659389 -7.839605 -5.666266 -25.918890 2.483648 0.000000 0.000000 0.000000 17.593147 -3.458732 -2.115685 60.520013 -3.581926 -10.120025 5.015435 26.033765 2.500589 0.000000 0.000000 0.000000 
-0.022405 0.956918 0.057453 0.866653 -6.192829 2.920917 5.584691 -0.584818 -16.321313 -10.058982 3.902178 31.199762 9.493156 19.071491 25.387891 0.000000 0.000000 0.000000 1.351524 0.313107 -3.382716 1.212672 0.116630 6.406905 -1.260139 -7.117717 8.804762 0.000000 0.000000 0.000000 8.078382 -1.496925 13.190105 -6.742517 1.965721 -28.403986 -0.973423 7.974932 24.794837 5.196165 -2.201802 -14.517373 0.000000 0.000000 0.000000 -8.654573 -8.038545 2.646265 -59.623089 -2.592194 -8.497454 -7.019545 -27.692961 2.986239 0.000000 0.000000 0.000000 16.373283 -3.085276 -1.663873 60.520203 -2.266822 -9.458320 5.774927 25.658033 2.651563 0.000000 0.000000 0.000000 
-0.023286 0.956791 0.069213 1.691327 -5.299079 2.911709 4.805157 -0.883926 -21.442612 -10.468384 4.269019 34.393976 10.388346 20.247376 25.498294 0.000000 0.000000 0.000000 0.766285 0.253396 -2.744057 0.992114 0.159040 6.839423 -1.929727 -8.112167 8.096944 0.000000 0.000000 0.000000 7.434987 -1.503467 14.016494 -7.064768 2.036557 -28.891999 -0.556961 8.411091 25.484408 5.944717 -2.525321 -15.233554 0.000000 0.000000 0.000000 -8.491059 -8.876747 2.891274 -59.455127 -2.036170 -8.877916 -8.871171 -28.104120 3.441816 0.000000 0.000000 0.000000 15.978985 -3.280336 -1.533972 60.503342 -1.119243 -8.917551 6.390684 26.331389 2.937823 0.000000 0.000000 0.000000 
-0.023866 0.956673 0.083391 2.053860 -5.192015 2.806893 5.360165 -0.877916 -25.804442 -11.564129 4.793917 34.935087 9.288628 18.916077 18.587752 0.000000 0.000000 0.000000 0.586181 0.132283 -1.540979 0.508000 0.242049 7.054711 -1.896383 -7.621275 6.935322 0.000000 0.000000 0.000000 6.865808 -1.539528 15.335206 -7.017063 2.018510 -29.290362 -0.350592 9.528246 25.425817 6.544850 -2.716452 -15.613162 0.000000 0.000000 0.000000 -8.639344 -8.663656 2.637727 -58.968630 -1.492907 -9.119842 -10.317004 -28.907755 3.838740 0.000000 0.000000 0.000000 15.677407 -3.523983 -1.426641 60.317290 -0.176274 -8.364882 7.074101 27.451603 3.321786 0.000000 0.000000 0.000000 
-0.024099 0.955043 0.100754 2.424780 -5.021932 2.511022 5.614002 -0.881763 -28.868312 -11.929706 4.565357 32.103024 8.600787 17.893484 14.494763 0.000000 0.000000 0.000000 0.067044 -0.014683 0.119285 -0.011236 0.302370 6.665419 -1.275188 -6.173963 6.586046 0.000000 0.000000 0.000000 6.246826 -1.551081 16.667907 -7.173309 2.051177 -29.508165 0.315643 10.342278 25.300436 7.269799 -2.973082 -16.344528 0.000000 0.000000 0.000000 -8.727190 -9.042463 2.663276 -58.828207 -0.738176 -9.479520 -11.904570 -28.299534 4.084455 0.000000 0.000000 0.000000 15.084275 -3.585246 -1.291872 60.308728 0.804743 -7.774134 7.804607 28.669368 3.738176 0.000000 0.000000 0.000000 
-0.023786 0.952458 0.121589 2.623315 -5.476535 2.839125 5.749437 -0.826137 -30.810001 -11.846563 4.002064 27.082567 8.837098 18.165100 15.178856 0.000000 0.000000 0.000000 -0.008263 -0.170977 1.820118 -0.552455 0.333355 5.657017 -1.367772 -5.920602 5.412011 0.000000 0.000000 0.000000 5.937632 -1.535165 17.201479 -7.409562 2.092875 -29.368462 0.199640 11.278522 24.778545 7.570332 -2.961060 -16.879772 0.000000 0.000000 0.000000 -7.706940 -8.781543 2.505760 -59.359921 0.251760 -10.050595 -13.615103 -28.341413 4.462709 0.000000 0.000000 0.000000 14.173379 -3.006129 -0.882240 61.058823 2.210634 -6.961323 8.043841 29.553594 3.987311 0.000000 0.000000 0.000000 
-0.022593 0.948123 0.146105 2.575645 -6.368556 2.925160 5.825172 -0.714763 -31.775184 -10.731424 3.071285 21.225302 8.961471 18.211700 17.371981 0.000000 0.000000 0.000000 -0.654411 -0.287819 3.670731 -0.322548 0.274236 5.094957 -0.906047 -4.461727 4.301970 0.000000 0.000000 0.000000 5.254198 -1.455730 18.048370 -7.088427 2.009977 -29.864269 0.521299 12.565048 24.838942 8.222415 -2.925330 -18.878525 0.000000 0.000000 0.000000 -6.224235 -8.093826 2.243081 -60.160168 0.999721 -10.698299 -15.630011 -27.553866 4.781198 0.000000 0.000000 0.000000 12.851168 -2.701496 -0.641608 61.181934 3.595921 -6.109043 9.208616 30.668454 4.527926 0.000000 0.000000 0.000000 
-0.020206 0.942219 0.174812 2.642685 -6.749259 3.034212 4.978605 -0.913802 -31.848730 -7.950989 1.734522 14.462712 7.757988 16.483874 19.048174 0.000000 0.000000 0.000000 -1.366262 -0.426790 6.309612 -0.267264 0.176545 3.284972 -0.636945 -3.670949 3.896069 0.000000 0.000000 0.000000 4.456627 -1.319514 18.288059 -7.085071 2.026410 -29.358402 0.415322 13.741868 24.391994 9.836883 -3.665902 -19.911871 0.000000 0.000000 0.000000 -4.881793 -8.278106 2.317861 -61.209058 1.893869 -11.459828 -15.841142 -26.775306 4.623960 0.000000 0.000000 0.000000 12.172644 -2.804510 -0.596292 62.019799 4.511047 -5.441932 9.114603 32.075898 4.832828 0.000000 0.000000 0.000000 
-0.016526 0.934317 0.208239 2.508472 -7.425720 3.312788 4.317573 -1.028423 -32.089534 -5.899086 1.062940 10.569540 6.772117 15.123879 21.093715 0.000000 0.000000 0.000000 -2.011194 -0.505742 8.746167 -0.365723 0.148363 2.458064 -0.356205 -2.399239 2.649393 0.000000 0.000000 0.000000 3.593373 -1.170568 18.674093 -7.559361 2.092527 -29.802373 1.126101 14.733290 24.450188 10.278742 -3.580588 -21.338747 0.000000 0.000000 0.000000 -3.416275 -9.001376 2.661007 -62.144128 2.130101 -11.937188 -15.902631 -25.381338 4.364203 0.000000 0.000000 0.000000 12.575391 -2.490542 -0.346107 61.270921 5.040357 -5.157405 9.415118 32.775864 5.076141 0.000000 0.000000 0.000000 
-0.011311 0.924186 0.246828 1.874319 -8.208146 3.434972 4.530710 -0.871120 -32.540602 -5.530815 1.053451 11.877574 6.720712 15.062494 23.406952 0.000000 0.000000 0.000000 -2.456997 -0.544211 10.798627 -0.585639 0.205460 3.087939 0.255598 -0.476775 1.769893 0.000000 0.000000 0.000000 3.571223 -1.143072 18.516646 -7.944716 2.156125 -29.552130 0.811466 15.983521 24.875550 10.973626 -3.671225 -22.573567 0.000000 0.000000 0.000000 -2.652550 -9.655240 2.912691 -62.050564 1.195622 -11.616194 -14.660498 -24.417600 3.892322 0.000000 0.000000 0.000000 13.719626 -2.549676 -0.190506 61.098208 5.857848 -4.863375 8.055281 33.243102 4.851028 0.000000 0.000000 0.000000 
